<svg width="23" height="17" viewBox="0 0 23 17" fill="none" xmlns="http://www.w3.org/2000/svg">
<path d="M22.2801 2.52594C22.0184 1.53475 21.2473 0.754118 20.2683 0.4892C18.4937 0.0078125 11.3778 0.0078125 11.3778 0.0078125C11.3778 0.0078125 4.26196 0.0078125 2.48734 0.4892C1.50829 0.75416 0.737209 1.53475 0.475501 2.52594C0 4.32253 0 8.07095 0 8.07095C0 8.07095 0 11.8194 0.475501 13.616C0.737209 14.6071 1.50829 15.3553 2.48734 15.6202C4.26196 16.1016 11.3778 16.1016 11.3778 16.1016C11.3778 16.1016 18.4937 16.1016 20.2683 15.6202C21.2473 15.3553 22.0184 14.6071 22.2801 13.616C22.7556 11.8194 22.7556 8.07095 22.7556 8.07095C22.7556 8.07095 22.7556 4.32253 22.2801 2.52594ZM9.05051 11.4742V4.66767L14.998 8.07103L9.05051 11.4742Z" fill="white"/>
</svg>
