<svg width="14" height="15" viewBox="0 0 14 15" fill="none" xmlns="http://www.w3.org/2000/svg">
<path d="M7 0.341675C3.25391 0.341675 0.21875 3.43008 0.21875 7.24189C0.21875 11.0537 3.25391 14.1421 7 14.1421C10.7461 14.1421 13.7812 11.0537 13.7812 7.24189C13.7812 3.43008 10.7461 0.341675 7 0.341675ZM7 12.8066C3.97852 12.8066 1.53125 10.3164 1.53125 7.24189C1.53125 4.1674 3.97852 1.6772 7 1.6772C10.0215 1.6772 12.4688 4.1674 12.4688 7.24189C12.4688 10.3164 10.0215 12.8066 7 12.8066ZM8.68984 9.90182L6.36836 8.18511C6.28359 8.12111 6.23438 8.02095 6.23438 7.91522V3.34661C6.23438 3.16297 6.38203 3.01273 6.5625 3.01273H7.4375C7.61797 3.01273 7.76562 3.16297 7.76562 3.34661V7.28919L9.59219 8.64141C9.73984 8.74992 9.76992 8.9586 9.66328 9.10885L9.14922 9.82948C9.04258 9.97694 8.8375 10.0103 8.68984 9.90182Z" fill="#737374"/>
</svg>
