<svg width="13" height="14" viewBox="0 0 13 14" fill="none" xmlns="http://www.w3.org/2000/svg">
<path d="M8.575 8.3125C7.79023 8.3125 7.41289 8.75 6.125 8.75C4.83711 8.75 4.4625 8.3125 3.675 8.3125C1.64609 8.3125 0 9.95859 0 11.9875V12.6875C0 13.4121 0.587891 14 1.3125 14H10.9375C11.6621 14 12.25 13.4121 12.25 12.6875V11.9875C12.25 9.95859 10.6039 8.3125 8.575 8.3125ZM10.9375 12.6875H1.3125V11.9875C1.3125 10.6859 2.37344 9.625 3.675 9.625C4.07422 9.625 4.72227 10.0625 6.125 10.0625C7.53867 10.0625 8.17305 9.625 8.575 9.625C9.87656 9.625 10.9375 10.6859 10.9375 11.9875V12.6875ZM6.125 7.875C8.29883 7.875 10.0625 6.11133 10.0625 3.9375C10.0625 1.76367 8.29883 0 6.125 0C3.95117 0 2.1875 1.76367 2.1875 3.9375C2.1875 6.11133 3.95117 7.875 6.125 7.875ZM6.125 1.3125C7.57148 1.3125 8.75 2.49102 8.75 3.9375C8.75 5.38398 7.57148 6.5625 6.125 6.5625C4.67852 6.5625 3.5 5.38398 3.5 3.9375C3.5 2.49102 4.67852 1.3125 6.125 1.3125Z" fill="#737374"/>
</svg>
